<?xml version="1.0" standalone="no"?>
<!DOCTYPE svg PUBLIC "-//W3C//DTD SVG 20010904//EN"
 "http://www.w3.org/TR/2001/REC-SVG-20010904/DTD/svg10.dtd">
<svg version="1.0" xmlns="http://www.w3.org/2000/svg"
 width="512.000000pt" height="512.000000pt" viewBox="0 0 512.000000 512.000000"
 preserveAspectRatio="xMidYMid meet">
<metadata>
Created by potrace 1.14, written by Peter Selinger 2001-2017
</metadata>
<g transform="translate(0.000000,512.000000) scale(0.100000,-0.100000)"
fill="#000000" stroke="none">
<path d="M1400 4519 c0 -656 2 -631 -66 -664 -43 -20 -73 -19 -112 5 -63 38
-62 30 -62 665 l0 575 -37 -5 c-21 -3 -90 -10 -153 -16 -63 -6 -116 -12 -116
-12 -5 -6 -36 -711 -45 -1051 -14 -456 -9 -535 39 -653 53 -131 127 -210 311
-335 138 -94 188 -141 201 -187 12 -45 2 -161 -40 -481 -99 -753 -121 -991
-121 -1322 1 -421 36 -676 117 -845 58 -121 136 -173 260 -173 112 0 173 32
234 123 101 150 150 442 150 899 0 322 -19 529 -115 1228 -58 423 -68 529 -53
572 16 50 51 82 194 179 284 192 364 337 364 655 0 214 -43 1381 -51 1389 -3
2 -54 9 -114 15 -61 6 -129 13 -152 16 l-43 5 0 -588 c0 -450 -3 -594 -13
-613 -16 -32 -73 -70 -104 -70 -38 0 -87 27 -106 59 -16 27 -17 81 -17 625 l0
596 -175 0 -175 0 0 -591z"/>
<path d="M3167 4230 c-3 -470 -11 -916 -16 -990 -6 -74 -18 -259 -26 -410 -9
-151 -18 -288 -21 -305 -65 -423 -121 -905 -134 -1157 -12 -225 1 -674 24
-849 37 -272 99 -419 199 -471 57 -30 204 -37 274 -14 176 58 247 318 260 941
8 403 -11 577 -97 865 -79 263 -83 281 -83 380 -1 157 37 236 233 474 156 190
201 255 250 357 85 178 106 328 95 689 -9 340 -35 521 -100 717 -63 188 -134
303 -258 419 -135 126 -286 188 -498 202 l-97 7 -5 -855z"/>
</g>
</svg>
